<svg width="48" height="33" viewBox="0 0 48 33" fill="none" xmlns="http://www.w3.org/2000/svg">
<path d="M19.3387 20.3953C20.3467 19.0721 21.8763 18.3143 23.5349 18.3143C24.9835 18.3143 26.3339 18.8904 27.3387 19.9368C27.4795 20.0843 27.6117 20.2372 27.7333 20.3964C28.4779 21.3701 28.8565 22.564 28.8075 23.8145C28.7925 24.2014 28.7349 24.5787 28.64 24.9411C28.0619 27.1396 26.0917 28.7942 23.7461 28.884C22.0288 28.9502 20.3819 28.1743 19.3397 26.8072L16.0789 29.3029C16.9717 30.4733 18.1419 31.4299 19.4624 32.0691C20.7264 32.6804 22.1301 32.9989 23.5424 32.9989C23.6629 32.9989 23.7835 32.9968 23.9029 32.9925C26.256 32.9017 28.4779 31.9248 30.1589 30.2414C30.6944 29.7048 31.1584 29.1127 31.5456 28.4789C32.2048 27.3994 32.6389 26.198 32.8203 24.94C32.8661 24.6215 32.8949 24.2987 32.9077 23.9738C32.9184 23.7044 32.9173 23.4362 32.9056 23.17C32.8629 22.2198 32.6784 21.29 32.3552 20.3964C32.3307 20.328 32.3051 20.2596 32.2784 20.1923C31.8272 19.0326 31.1605 17.9873 30.2965 17.0863C29.4315 16.1842 28.4139 15.4755 27.2725 14.9785C26.0907 14.4634 24.8331 14.2026 23.5349 14.2026C22.2368 14.2026 20.9429 14.4762 19.76 14.9956V10.7952H31.0571L34.7243 14.4698H31.2821C31.5317 14.691 31.7728 14.923 32.0064 15.1656C33.1264 16.3317 33.9893 17.6848 34.5739 19.1876C34.7285 19.5852 34.8619 19.9892 34.9728 20.3975H48.0011C47.984 19.6279 47.824 18.8808 47.5264 18.1743C47.2213 17.4518 46.7851 16.803 46.2304 16.2472C45.6757 15.6914 45.0283 15.2543 44.3072 14.9486C43.5595 14.6322 42.7669 14.4708 41.9499 14.4708H40.528L34.4448 8.37533C33.3643 7.29261 31.8997 6.68445 30.3723 6.68445H18.0704C16.7381 6.68445 15.6576 7.76717 15.6576 9.10213V20.4018L19.3397 20.3964L19.3387 20.3953Z" fill="white"/>
<path d="M13.4315 6.68552V26.5336H9.34507V12.7426C9.34507 12.7426 9.34507 12.7415 9.344 12.7426C7.9776 14.0636 6.2688 15.4168 4.27947 16.4011C2.30507 17.3759 0 15.9351 0 13.7237C2.912 13.1305 5.39307 11.1489 7.11893 9.35972C8.77333 7.64425 11.0539 6.68552 13.4293 6.68552H13.4315Z" fill="white"/>
<path d="M26.1664 4.46555H14.0491C13.5712 4.46555 13.2662 4.00382 13.4902 3.62118L15.4411 0.303547C15.551 0.116502 15.7654 0 16 0H24.2144C24.448 0 24.6624 0.116502 24.7734 0.303547L26.7243 3.62118C26.9494 4.00382 26.6432 4.46555 26.1654 4.46555H26.1664Z" fill="white"/>
</svg>
