<svg width="15" height="16" viewBox="0 0 15 16" fill="none" xmlns="http://www.w3.org/2000/svg">
<path fill-rule="evenodd" clip-rule="evenodd" d="M9.46877 11.07C8.00881 11.0187 5.68127 9.86659 4.08603 7.09592C3.52164 6.11173 3.60093 4.99225 4.4312 4.21796C4.71106 3.95675 5.0609 4.02206 5.39207 4.07803C5.47136 4.09202 5.55533 4.21329 5.5973 4.30658C5.81187 4.79168 6.0171 5.27212 6.20368 5.76655C6.30163 6.02775 6.11972 6.27498 5.7419 6.70877C5.62063 6.84404 5.5973 6.97463 5.69059 7.13322C6.30163 8.16872 7.15988 8.91971 8.28867 9.36283C8.45193 9.42813 8.57787 9.38616 8.68515 9.25555C9.2822 8.5279 9.34283 8.31333 9.65535 8.4626C11.1666 9.18558 11.2832 9.21356 11.2926 9.38614C11.3439 10.6595 10.1778 11.1167 9.46877 11.0654V11.07ZM3.68955 14.1345C3.82949 14.1019 4.01607 14.1205 4.15134 14.1858C5.63929 14.9088 7.1972 15.1467 8.82508 14.8668C12.9204 14.1485 15.6258 10.2257 14.8748 6.09773C14.1565 2.13764 10.2104 -0.824272 5.82586 0.206565C0.993521 1.34002 -1.38067 6.65278 0.923553 11.0373C0.988855 11.1586 1.00285 11.3405 0.9702 11.4758C0.732315 12.3854 0.480435 13.2903 0.233221 14.1952C0.15859 14.4797 0.0839596 14.7642 0 15.0861C0.40114 15.0068 1.71651 14.6336 3.69889 14.1392L3.68955 14.1345ZM2.19694 11.6904C2.35087 11.2519 2.29023 10.9161 2.05701 10.5009C-0.0326528 6.78807 2.19694 2.10497 6.39959 1.33068C9.87458 0.691652 13.163 3.04719 13.6994 6.55484C14.2172 9.93654 11.8943 13.1177 8.49858 13.6588C7.02462 13.8967 5.64395 13.6214 4.35657 12.8751C4.18865 12.7772 4.03939 12.7492 3.84348 12.8005C3.16248 12.9917 2.47681 13.1643 1.7305 13.3556C1.89375 12.7585 2.0057 12.2081 2.19228 11.681L2.19694 11.6904Z" fill="white"/>
</svg>
